<svg width="493" height="82" viewBox="0 0 493 82" fill="none" xmlns="http://www.w3.org/2000/svg">
<path d="M27.8207 52.582V68.6686C27.8207 74.0308 30.5524 75.2449 39.5568 75.7507V80H0.605114V75.7507C7.38372 75.0425 7.99076 74.2331 7.99076 68.9721V20.0043C7.99076 14.7433 7.38372 13.9339 0.605114 13.2257V8.97638H35.6111C55.3398 8.97638 64.4454 18.1831 64.4454 30.4251C64.4454 44.387 54.834 52.582 34.8017 52.582H27.8207ZM27.8207 13.7315V47.321H30.1477C39.8603 47.321 45.0202 40.846 45.0202 30.4251C45.0202 20.0043 39.2533 13.7315 30.1477 13.7315H27.8207ZM91.9638 24.4559V72.1085C91.9638 75.346 93.5825 75.7507 97.6295 76.0542V80H67.6822V76.0542C71.7291 75.7507 73.3479 75.346 73.3479 72.1085V36.5967L67.7834 33.1568V30.3239L88.8274 24.4559H91.9638ZM82.8582 20.0043C76.5854 20.0043 72.9432 15.6538 72.9432 10.5952C72.9432 5.53649 76.5854 1.28721 82.8582 1.28721C88.9286 1.28721 92.7731 5.53649 92.7731 10.5952C92.7731 15.6538 88.9286 20.0043 82.8582 20.0043ZM124.236 11.7081V25.4676H136.074V30.931H124.236V64.4193C124.236 69.2756 126.159 71.4003 130.003 71.4003C132.634 71.4003 134.86 70.4897 137.288 68.8709L138.805 71.0968C134.961 77.3695 129.295 81.0117 121.201 81.0117C111.893 81.0117 105.418 76.3578 105.418 64.4193V30.931H99.6513V27.5923C107.745 24.5571 115.03 18.689 120.291 11.7081H124.236ZM157.08 47.4222C157.08 60.3724 162.847 68.3651 172.964 68.3651C178.933 68.3651 183.183 66.3416 186.42 61.6876L188.646 63.1041C185.307 75.4472 177.112 81.0117 165.781 81.0117C151.718 81.0117 140.892 70.9956 140.892 54.4032C140.892 37.3049 151.819 24.4559 168.614 24.4559C178.832 24.4559 187.128 28.4016 187.128 37.3049C187.128 41.1495 184.902 43.6788 182.677 44.6905H173.065C173.369 42.4647 173.47 40.7448 173.47 38.9237C173.47 33.0556 171.851 29.0087 166.995 29.0087C160.722 29.0087 157.08 37.0014 157.08 47.4222ZM197.137 72.1085V11.3034L191.573 8.47052V5.43532L212.718 0.781347H215.854V34.5732C219.699 29.7169 225.466 24.4559 234.673 24.4559C244.385 24.4559 249.95 30.0204 249.95 41.0483V72.1085C249.95 75.346 251.569 75.7507 255.615 76.0542V80H225.871V76.0542C229.917 75.7507 231.233 75.346 231.233 72.1085V42.5659C231.233 38.1143 229.715 35.4838 224.454 35.4838C221.217 35.4838 218.384 36.3943 215.854 37.7096V72.1085C215.854 75.346 217.17 75.7507 221.217 76.0542V80H191.472V76.0542C195.519 75.7507 197.137 75.346 197.137 72.1085ZM288.308 30.5263C281.125 30.5263 277.381 38.1143 277.381 49.5469C277.381 61.9912 281.833 70.4897 289.724 70.4897C291.748 70.4897 293.67 70.085 295.491 69.0733V40.9471C295.491 34.1685 293.569 30.5263 288.308 30.5263ZM295.491 11.3034L289.927 8.47052V5.43532L311.072 0.781347H314.208V68.3651C314.208 71.805 314.411 73.3226 317.648 73.4237L320.076 73.5249V77.4707L298.627 81.0117H295.188L295.491 71.5014C291.343 77.673 285.88 81.0117 279.101 81.0117C267.163 81.0117 258.664 71.7038 258.664 55.2126C258.664 35.4838 270.603 24.8606 285.475 24.8606C289.623 24.8606 293.164 25.9735 295.491 27.8958V11.3034ZM352.211 76.7625C358.282 76.7625 360.204 68.9721 360.204 56.1231C360.204 39.5307 357.877 28.7052 351.301 28.7052C345.23 28.7052 343.308 36.4955 343.308 49.3445C343.308 65.9369 345.736 76.7625 352.211 76.7625ZM351.705 81.0117C335.012 81.0117 323.478 70.3885 323.478 53.7961C323.478 36.799 335.214 24.4559 351.807 24.4559C368.5 24.4559 380.034 35.0791 380.034 51.6715C380.034 68.6686 368.298 81.0117 351.705 81.0117ZM408.624 43.8812V70.5909C408.624 74.9413 410.951 75.346 416.718 76.0542V80H384.343V76.0542C388.39 75.7507 390.008 75.346 390.008 72.1085V36.5967L384.444 33.1568V30.3239L405.589 24.4559H409.029L408.624 40.0366C412.772 28.1993 416.313 24.4559 422.687 24.4559C425.014 24.4559 426.734 25.1641 427.746 26.1758V40.2389H425.318C418.944 40.2389 413.278 40.4413 408.624 43.8812ZM455.268 51.368L470.748 37.3049C473.378 34.9779 474.086 33.7638 474.086 32.4486C474.086 30.5263 472.67 29.9192 467.915 29.4134V25.4676H490.881V29.4134C487.441 29.9192 485.114 30.5263 482.484 33.1568L470.849 44.0835L492.905 77.2683V80H473.479L455.268 51.368ZM435.843 72.1085V11.3034L430.278 8.47052V5.43532L451.424 0.781347H454.56V72.1085C454.56 75.346 456.179 75.7507 460.226 76.0542V80H430.177V76.0542C434.224 75.7507 435.843 75.346 435.843 72.1085Z" fill="black"/>
</svg>
